<svg id="Layer_1" enable-background="new 0 0 496.009 496.009" height="512" viewBox="0 0 496.009 496.009" width="512" xmlns="http://www.w3.org/2000/svg"><path d="m86.116 293.4c0 31.017-5.811 61.361-17.271 90.188l-37.972 95.504c-3.265 8.21-12.566 12.221-20.779 8.957-8.212-3.265-12.222-12.568-8.957-20.779l37.972-95.504c9.958-25.048 15.008-51.414 15.008-78.365 0-82.489 4.601-149.232-30.086-243.275l-8.025-21.761c-3.058-8.291 1.185-17.49 9.476-20.548 8.287-3.057 17.489 1.184 20.548 9.476 43.668 118.409 40.086 158.583 40.086 276.107zm408.757 173.87-37.972-95.504c-9.958-25.048-15.008-51.414-15.008-78.365 0-82.489-4.601-149.232 30.086-243.275l8.025-21.761c3.058-8.291-1.185-17.49-9.476-20.548s-17.491 1.185-20.548 9.476c-12.557 34.049-40.088 101.879-40.088 201.345 0 137.102-4.873 109.253 55.243 260.455 3.265 8.21 12.566 12.221 20.779 8.957 8.214-3.266 12.223-12.569 8.959-20.78zm-197.418-288.076c14.162 0 27.477-5.515 37.49-15.529l23.092-23.092c6.249-6.248 6.249-16.379 0-22.627-6.248-6.248-16.379-6.248-22.627 0-30.754 30.754-25.613 29.249-47.424 29.249-9.241 0-17.528-6.188-20.153-15.048l-3.828-12.92v-26.328c0-8.836-7.163-16-16-16s-16 7.164-16 16v26.328l-3.828 12.92c-2.625 8.859-10.912 15.047-20.153 15.047-21.811 0-16.597 1.578-47.424-29.249-6.248-6.248-16.379-6.248-22.627 0-6.249 6.249-6.249 16.379 0 22.627l23.092 23.092c10.014 10.014 23.328 15.529 37.49 15.529 10.806 0 20.546.784 33.45-5.815v69.247l-3.828 12.92c-2.625 8.86-10.912 15.048-20.153 15.048-21.811 0-16.597 1.579-47.424-29.248-6.248-6.249-16.379-6.249-22.627 0-6.249 6.248-6.249 16.379 0 22.627l23.092 23.092c16.98 16.98 35.631 15.529 46.959 15.529 8.508 0 16.692-2.088 23.981-5.815v69.246l-3.828 12.92c-2.625 8.859-10.912 15.047-20.153 15.047-21.811 0-16.597 1.579-47.424-29.248-6.248-6.249-16.379-6.249-22.627 0-6.249 6.248-6.249 16.379 0 22.627l23.092 23.092c10.014 10.014 23.328 15.529 37.49 15.529 10.806 0 20.546.784 33.45-5.815v23.899c0 8.836 7.163 16 16 16s16-7.164 16-16v-23.899c7.29 3.728 15.473 5.815 23.981 5.815 10.469 0 29.672 1.758 46.959-15.529l23.092-23.092c6.249-6.249 6.249-16.379 0-22.627-6.248-6.249-16.379-6.249-22.627 0-30.754 30.754-25.613 29.248-47.424 29.248-9.241 0-17.528-6.188-20.153-15.048l-3.828-12.92v-69.246c12.93 6.612 22.732 5.815 33.45 5.815 14.162 0 27.477-5.515 37.49-15.529l23.092-23.092c6.249-6.249 6.249-16.379 0-22.627-6.248-6.249-16.379-6.249-22.627 0-30.754 30.754-25.613 29.248-47.424 29.248-9.241 0-17.528-6.188-20.153-15.048l-3.828-12.919v-69.247c12.929 6.613 22.73 5.816 33.45 5.816z"/></svg>