<?xml version="1.0" encoding="iso-8859-1"?>
<!-- Generator: Adobe Illustrator 19.0.0, SVG Export Plug-In . SVG Version: 6.00 Build 0)  -->
<svg version="1.1" id="Capa_1" xmlns="http://www.w3.org/2000/svg" xmlns:xlink="http://www.w3.org/1999/xlink" x="0px" y="0px"
	 viewBox="0 0 480 480" style="enable-background:new 0 0 480 480;" xml:space="preserve">
<g>
	<g>
		<path d="M40,464V0H24v16H0v16h24v96H0v16h24v96H0v16h24v96H0v16h24v104c0,4.418,3.582,8,8,8h448v-16H40z"/>
	</g>
</g>
<g>
	<g>
		<path d="M432.16,150.4l-19.064,95.352l-21.784-49c-1.774-4.046-6.493-5.888-10.539-4.114c-1.198,0.525-2.249,1.336-3.061,2.362
			l-22.776,28.52l-19.352-58.048c-1.066-3.205-4.031-5.395-7.408-5.472c-3.393-0.136-6.485,1.937-7.648,5.128L247.048,356.2
			L231.2,324.424c-1.972-3.954-6.776-5.56-10.73-3.588c-1.039,0.518-1.953,1.257-2.678,2.164l-23.656,29.6l-18.744-43.728
			c-1.392-2.893-4.279-4.772-7.488-4.872c-3.237,0.036-6.132,2.019-7.336,5.024l-26.712,66.792L118.4,355.2
			c-2.632-3.549-7.642-4.293-11.191-1.661c-1.021,0.757-1.847,1.746-2.409,2.885l-32,64l14.32,7.152l26.248-52.376l16.232,21.6
			c2.648,3.537,7.662,4.257,11.199,1.609c1.177-0.881,2.088-2.069,2.633-3.433l24.8-62.072l16.392,38.248
			c1.74,4.061,6.443,5.943,10.504,4.203c1.21-0.518,2.274-1.327,3.096-2.355l24.192-30.24l18.4,36.8
			c1.451,2.806,4.387,4.525,7.544,4.416c3.169-0.15,5.949-2.159,7.088-5.12l72-187.2l16.952,50.848
			c1.398,4.191,5.929,6.456,10.12,5.058c1.461-0.487,2.749-1.385,3.712-2.586l23.784-29.736l26.656,60
			c1.797,4.036,6.526,5.852,10.562,4.055c2.369-1.055,4.08-3.192,4.59-5.734l24-120L432.16,150.4z"/>
	</g>
</g>
<g>
	<g>
		<rect x="88" y="32" width="16" height="16"/>
	</g>
</g>
<g>
	<g>
		<rect x="120" y="32" width="96" height="16"/>
	</g>
</g>
<g>
	<g>
		<rect x="88" y="64" width="128" height="16"/>
	</g>
</g>
<g>
	<g>
		<rect x="88" y="96" width="128" height="16"/>
	</g>
</g>
<g>
</g>
<g>
</g>
<g>
</g>
<g>
</g>
<g>
</g>
<g>
</g>
<g>
</g>
<g>
</g>
<g>
</g>
<g>
</g>
<g>
</g>
<g>
</g>
<g>
</g>
<g>
</g>
<g>
</g>
</svg>
