<svg id="Layer_1" enable-background="new 0 0 496.001 496.001" height="512" viewBox="0 0 496.001 496.001" width="512" xmlns="http://www.w3.org/2000/svg"><path d="m435.987 93.649-105.059-32.604-11.043-48.591c-1.656-7.285-8.131-12.454-15.602-12.454h-112.565c-7.47 0-13.946 5.169-15.602 12.454l-11.043 48.591-105.059 32.604c-6.695 2.078-11.258 8.271-11.258 15.281v131.877c0 14.03 6.109 27.313 16.762 36.445 18.171 15.575 17.633 15.223 20.416 17.148l13.07 186.716c.614 8.776 8.218 15.459 17.078 14.844 8.815-.617 15.461-8.263 14.844-17.078l-12.316-175.943h84.705c14.925 0 29.22-7.099 38.241-18.99l6.444-8.495 6.445 8.496c9.021 11.89 23.316 18.989 38.24 18.989h84.704l-12.316 175.943c-.617 8.815 6.028 16.461 14.844 17.078 8.779.621 16.459-6.001 17.078-14.844l13.07-186.716c2.819-1.95 2.463-1.761 20.417-17.149 10.652-9.131 16.762-22.414 16.762-36.444v-131.876c.001-7.01-4.562-13.203-11.257-15.282zm-20.742 147.159c0 4.677-2.036 9.104-5.587 12.148-16.862 14.452-19.278 17.983-26.899 17.983h-90.072c-4.975 0-9.74-2.367-12.747-6.33l-19.191-25.298c-6.404-8.441-19.102-8.427-25.494 0l-19.191 25.298c-3.007 3.964-7.772 6.33-12.747 6.33h-90.072c-7.541 0-9.819-3.343-26.899-17.983-3.551-3.044-5.587-7.472-5.587-12.148v-120.09l102.615-31.846c5.455-1.693 9.594-6.165 10.86-11.735l10.256-45.137h87.021l10.258 45.137c1.267 5.57 5.405 10.042 10.86 11.735l102.615 31.846v120.09zm-253.244-4.808c0 8.836-7.164 16-16 16h-14c-8.836 0-16-7.164-16-16s7.164-16 16-16h14c8.836 0 16 7.164 16 16zm172 0c0-8.836 7.163-16 16-16h14c8.837 0 16 7.164 16 16s-7.163 16-16 16h-14c-8.837 0-16-7.164-16-16zm7.313 138.875-6.5 9.75c-8.925 13.385-23.854 21.375-39.939 21.375-12.359 0-30.801 1.959-46.874-15.065-16.047 16.996-34.42 15.065-46.874 15.065-16.086 0-31.016-7.991-39.938-21.375l-6.5-9.75c-4.902-7.353-2.915-17.287 4.437-22.188 7.351-4.903 17.287-2.915 22.188 4.437l6.5 9.75c2.975 4.462 7.951 7.125 13.313 7.125h11.982c17.774 0 15.356-22.251 28.816-27.794 3.892-1.595 8.213-1.606 12.131-.008 13.444 5.518 11.095 27.803 28.837 27.803h11.981c5.361 0 10.339-2.664 13.313-7.125l6.499-9.75c4.901-7.353 14.834-9.34 22.188-4.438 7.354 4.901 9.341 14.835 4.44 22.188zm0 80-6.5 9.75c-8.925 13.385-23.854 21.375-39.939 21.375-12.359 0-30.801 1.959-46.874-15.065-16.047 16.996-34.42 15.065-46.874 15.065-16.086 0-31.016-7.991-39.938-21.375l-6.5-9.75c-4.902-7.353-2.915-17.287 4.437-22.188 7.351-4.903 17.287-2.915 22.188 4.437l6.5 9.75c2.975 4.462 7.951 7.125 13.313 7.125h11.982c17.163 0 15.664-20.854 27.344-27.098 3.719-1.989 8.041-2.437 12.089-1.238 15.333 4.558 11.964 28.337 30.351 28.337h11.981c5.361 0 10.339-2.664 13.313-7.125l6.499-9.75c4.901-7.353 14.834-9.34 22.188-4.438 7.354 4.901 9.341 14.835 4.44 22.188z"/></svg>