<svg id="Layer_1" enable-background="new 0 0 512 512" height="512" viewBox="0 0 512 512" width="512" xmlns="http://www.w3.org/2000/svg"><g><g><path d="m401.597 83.37c-2.07-18.602-10.224-35.997-23.458-49.231l-.698-.698c-6.045-6.045-14.244-9.441-22.792-9.441h-69.297c-8.549 0-16.747 3.396-22.792 9.441l-16.595 16.595c-2.651 2.65-4.627 5.945-5.467 9.599-1.52 6.609.515 13.377 5.16 18.022l26.342 26.343c13.255 13.255 34.745 13.255 48 0h32c0 48-40 64-40 141.333 0 6.578.737 12.981 2.106 19.146-16.128-15.006-39.763-24.479-66.106-24.479-26.814 0-50.824 9.815-66.964 25.291-10.014-37.594-44.288-65.291-85.036-65.291-11.29 0-22.082 2.129-32 6.002v89.998 73.998 118.002h16l12.853-12.853c22.504-22.504 53.026-35.147 84.851-35.147h81.041c28.976 0 56.766-11.511 77.255-32h71.072c5.745 0 11.06-3.07 13.895-8.067 8.989-15.841 27.033-53.872 27.033-103.933 0-59.375-38.074-137.787-46.403-212.63z" fill="#f0915a"/></g><g><path d="m335.595 253.333c-4.418 0-8-3.582-8-8 0-41.3 12.028-64.433 22.641-84.842 2.037-3.92 6.866-5.446 10.789-3.407 3.92 2.038 5.445 6.868 3.407 10.789-10.715 20.607-20.836 40.072-20.836 77.46-.001 4.419-3.583 8-8.001 8z" fill="#fab991"/></g><g><ellipse cx="248" cy="312" fill="#fab991" rx="88" ry="72"/></g><g><path d="m96 200c-11.29 0-22.082 2.129-32 6.002v163.995c9.918 3.874 20.71 6.003 32 6.003 48.601 0 88-39.399 88-88s-39.399-88-88-88z" fill="#fab991"/></g><g><path d="m248 240c-26.814 0-50.824 9.815-66.964 25.291-10.014-37.594-44.288-65.291-85.036-65.291-11.29 0-22.082 2.129-32 6.002v163.995c9.918 3.874 20.71 6.003 32 6.003 29.114 0 54.922-14.142 70.94-35.928 13.373 25.817 44.631 43.928 81.06 43.928 48.601 0 88-32.235 88-72s-39.399-72-88-72z" fill="#fab991"/></g><g><path d="m307.06 288c-2.191 0-4.374-.895-5.954-2.654-12.008-13.366-31.861-21.346-53.106-21.346-19.663 0-38.016 6.785-50.354 18.615-3.189 3.059-8.253 2.952-11.311-.238-3.058-3.189-2.951-8.253.238-11.311 15.288-14.659 37.677-23.066 61.427-23.066 25.712 0 50.015 9.964 65.009 26.654 2.953 3.287 2.682 8.345-.605 11.297-1.528 1.373-3.44 2.049-5.344 2.049z" fill="#ffd7af"/></g><g><path d="m165.57 277.412c-3.537 0-6.772-2.363-7.726-5.943-7.445-27.949-32.876-47.469-61.844-47.469-4.817 0-9.604.532-14.229 1.582-4.308.977-8.594-1.721-9.572-6.03-.979-4.309 1.721-8.594 6.03-9.572 5.785-1.314 11.764-1.98 17.771-1.98 36.208 0 67.997 24.406 77.305 59.351 1.137 4.27-1.402 8.652-5.671 9.79-.69.183-1.383.271-2.064.271z" fill="#ffd7af"/></g><g><path d="m288 72h-32c-8.837 0-16 7.163-16 16 0 8.837 7.163 16 16 16h32 40c13.255 0 24-10.745 24-24 0-13.255-10.745-24-24-24h-24c-8.837 0-16 7.163-16 16z" fill="#fab991"/></g></g></svg>